<svg xmlns="http://www.w3.org/2000/svg" version="1.1" viewBox="0.00 0.00 127.00 132.00">
<g stroke-width="2.00" fill="none" stroke-linecap="butt">
<path stroke="#888787" vector-effect="non-scaling-stroke" d="
  M 21.03 71.76a
  C 20.31 75.11 20.92 78.11 19.69 81.36
  C 12.02 101.73 33.29 110.55 49.13 111.46
  A 1.48 1.43 65.0 0 1 49.99 111.79
  C 53.69 114.74 58.61 119.37 63.29 120.23
  C 70.89 121.61 78.34 119.29 82.84 113.01
  A 1.27 1.24 -77.2 0 1 83.65 112.49
  C 96.04 110.20 109.21 102.81 113.51 90.49
  C 115.86 83.72 108.59 81.93 110.46 75.24
  C 118.01 48.25 106.15 18.16 76.72 11.71
  C 56.20 7.21 35.64 17.04 25.44 35.46
  Q 20.99 43.51 18.99 55.39
  A 1.32 1.30 77.0 0 1 18.48 56.22
  C 14.28 59.43 13.36 66.33 12.90 72.04
  Q 12.86 72.60 13.40 72.51
  L 20.63 71.34
  Q 21.14 71.25 21.03 71.76"
/>
<path stroke="#8a7930" vector-effect="non-scaling-stroke" d="
  M 26.10 39.23
  Q 23.14 45.44 21.95 52.49"
/>
<path stroke="#8b7f2f" vector-effect="non-scaling-stroke" d="
  M 21.95 52.49
  L 21.73 54.96
  Q 21.69 55.43 22.15 55.32
  L 29.07 53.65
  A 1.07 1.05 3.6 0 0 29.82 53.00
  Q 30.79 50.47 33.54 50.29
  A 1.08 1.08 0.0 0 0 34.39 49.77
  C 43.03 35.20 66.93 35.49 82.68 34.11
  C 90.89 33.39 96.82 42.80 97.03 49.78
  A 1.03 1.02 10.1 0 0 97.68 50.70
  L 102.67 52.67
  A 1.21 1.18 0.3 0 1 103.34 53.33
  C 105.40 58.48 104.14 67.38 102.97 72.67
  A 0.70 0.69 6.4 0 0 103.65 73.51
  C 108.92 73.55 109.17 70.83 109.78 66.22
  C 113.74 36.37 93.06 10.12 61.54 13.48
  Q 37.56 16.03 26.10 39.23"
/>
<path stroke="#fee349" vector-effect="non-scaling-stroke" d="
  M 21.95 52.49
  L 29.03 38.36
  Q 29.24 37.94 28.79 37.83
  Q 28.59 37.78 28.38 37.86
  Q 28.14 37.97 27.96 38.38
  Q 27.24 40.00 26.10 39.23"
/>
<path stroke="#313538" vector-effect="non-scaling-stroke" d="
  M 67.9146 36.7095
  A 3.07 0.33 -10.9 0 0 64.8376 36.9660
  A 3.07 0.33 -10.9 0 0 61.8854 37.8705
  A 3.07 0.33 -10.9 0 0 64.9624 37.6140
  A 3.07 0.33 -10.9 0 0 67.9146 36.7095"
/>
<path stroke="#501c1a" vector-effect="non-scaling-stroke" d="
  M 63.26 39.15
  Q 50.05 38.18 39.52 46.97
  A 0.52 0.51 20.2 0 0 39.94 47.87
  C 42.77 47.38 47.06 42.79 48.69 42.99
  Q 48.87 43.01 49.00 43.11
  Q 49.43 43.43 48.97 43.70
  Q 48.26 44.14 48.28 44.77"
/>
<path stroke="#8a602a" vector-effect="non-scaling-stroke" d="
  M 48.28 44.77
  L 44.79 47.20
  Q 43.76 47.91 44.99 47.68
  L 51.51 46.50"
/>
<path stroke="#8a7930" vector-effect="non-scaling-stroke" d="
  M 51.51 46.50
  C 64.71 44.87 77.66 45.32 90.44 49.23"
/>
<path stroke="#815023" vector-effect="non-scaling-stroke" d="
  M 90.44 49.23
  Q 91.44 48.62 92.65 50.57
  A 0.70 0.70 0.0 0 0 93.94 50.13
  Q 92.56 38.00 79.43 37.06"
/>
<path stroke="#8a7930" vector-effect="non-scaling-stroke" d="
  M 79.43 37.06
  L 63.26 39.15"
/>
<path stroke="#f4b43c" vector-effect="non-scaling-stroke" d="
  M 79.43 37.06
  Q 79.42 38.60 79.72 38.77
  Q 86.40 42.52 90.44 49.23"
/>
<path stroke="#fdc443" vector-effect="non-scaling-stroke" d="
  M 51.51 46.50
  Q 50.83 46.61 50.78 46.44
  A 1.11 0.90 -15.8 0 1 51.61 45.26
  L 56.97 43.80
  Q 57.59 43.63 57.51 42.99
  L 57.22 40.74"
/>
<path stroke="#c38033" vector-effect="non-scaling-stroke" d="
  M 57.22 40.74
  L 63.26 39.15"
/>
<path stroke="#c2662d" vector-effect="non-scaling-stroke" d="
  M 57.22 40.74
  Q 52.42 41.90 48.28 44.77"
/>
<path stroke="#8a602a" vector-effect="non-scaling-stroke" d="
  M 98.67 53.68
  Q 101.73 53.78 98.75 53.11
  C 84.53 49.91 71.36 47.66 56.71 49.91
  Q 52.11 50.61 56.74 51.12
  C 64.43 51.97 72.70 51.38 81.00 51.70
  C 87.21 51.94 92.42 53.48 98.67 53.68"
/>
<path stroke="#313538" vector-effect="non-scaling-stroke" d="
  M 36.05 59.61
  L 36.03 68.89
  A 4.27 4.27 0.0 0 0 40.29 73.17
  L 44.55 73.18
  A 12.65 8.75 0.1 0 0 57.22 64.45
  L 57.22 64.13
  A 12.65 8.75 0.1 0 0 44.59 55.36
  L 40.33 55.35
  A 4.27 4.27 0.0 0 0 36.05 59.61"
/>
<path stroke="#6c361a" vector-effect="non-scaling-stroke" d="
  M 19.40 69.13
  Q 20.76 69.93 23.26 69.12"
/>
<path stroke="#815023" vector-effect="non-scaling-stroke" d="
  M 23.26 69.12
  Q 25.67 69.70 27.49 68.56"
/>
<path stroke="#8b7f2f" vector-effect="non-scaling-stroke" d="
  M 27.49 68.56
  Q 28.07 69.06 28.60 69.01
  Q 29.14 68.97 29.03 68.44
  Q 27.84 62.65 28.40 56.75
  Q 28.44 56.26 27.96 56.34
  C 20.15 57.54 15.47 60.53 15.93 69.26
  Q 15.95 69.73 16.41 69.65
  L 19.40 69.13"
/>
<path stroke="#f4ba3c" vector-effect="non-scaling-stroke" d="
  M 27.49 68.56
  L 21.99 68.89"
/>
<path stroke="#e0a033" vector-effect="non-scaling-stroke" d="
  M 21.99 68.89
  L 19.40 69.13"
/>
<path stroke="#d67126" vector-effect="non-scaling-stroke" d="
  M 23.26 69.12
  L 21.99 68.89"
/>
<path stroke="#888787" vector-effect="non-scaling-stroke" d="
  M 94.42 58.06
  Q 86.44 56.82 78.50 58.76
  C 74.06 59.85 75.04 65.04 77.20 67.79
  C 81.14 72.80 91.99 77.68 94.73 68.27
  Q 96.05 63.76 95.71 59.45
  A 1.54 1.54 0.0 0 0 94.42 58.06"
/>
<path stroke="#888787" vector-effect="non-scaling-stroke" d="
  M 32.47 61.88
  C 31.62 67.33 32.26 74.72 39.36 74.60
  Q 40.22 74.58 39.42 74.27
  L 36.32 73.04
  A 0.95 0.50 1.4 0 1 36.16 72.95
  C 32.67 69.99 33.46 65.83 32.85 61.88
  Q 32.66 60.66 32.47 61.88"
/>
<path stroke="#313538" vector-effect="non-scaling-stroke" d="
  M 72.69 61.69
  Q 72.87 64.73 74.93 67.91
  Q 74.99 68.00 75.00 68.00
  Q 75.14 68.00 75.29 68.00
  Q 75.58 68.01 75.42 67.76
  Q 73.52 64.83 73.76 61.32
  Q 73.79 60.90 73.37 60.95
  Q 72.65 61.06 72.69 61.69"
/>
<path stroke="#8a602a" vector-effect="non-scaling-stroke" d="
  M 65.77 68.24
  L 65.12 70.17
  A 0.61 0.60 -12.5 0 0 66.11 70.80
  Q 67.09 69.85 67.21 68.55
  A 0.74 0.74 0.0 0 0 65.77 68.24"
/>
<path stroke="#8a602a" vector-effect="non-scaling-stroke" d="
  M 70.36 74.96
  C 71.85 73.61 69.79 69.55 68.80 68.42
  A 0.39 0.38 -68.3 0 0 68.13 68.71
  L 68.63 74.68
  A 0.63 0.62 -86.9 0 0 69.13 75.24
  Q 69.87 75.40 70.36 74.96"
/>
<path stroke="#815023" vector-effect="non-scaling-stroke" d="
  M 24.53 73.06
  L 23.56 73.37
  Q 23.00 73.55 23.06 74.13
  L 23.51 79.06
  Q 23.57 79.69 24.21 79.74
  Q 25.86 79.86 27.22 78.98"
/>
<path stroke="#6c361a" vector-effect="non-scaling-stroke" d="
  M 27.22 78.98
  Q 27.98 79.43 28.95 79.21"
/>
<path stroke="#888787" vector-effect="non-scaling-stroke" d="
  M 28.95 79.21
  Q 30.01 79.39 30.49 78.79
  A 0.67 0.66 45.4 0 0 30.49 77.96
  L 29.47 76.68"
/>
<path stroke="#6c361a" vector-effect="non-scaling-stroke" d="
  M 29.47 76.68
  L 27.98 71.94
  A 1.10 1.10 0.0 0 0 26.17 71.48
  L 24.53 73.06"
/>
<path stroke="#dda88b" vector-effect="non-scaling-stroke" d="
  M 29.47 76.68
  Q 28.67 77.85 28.95 79.21"
/>
<path stroke="#d67126" vector-effect="non-scaling-stroke" d="
  M 27.22 78.98
  L 24.53 73.06"
/>
<path stroke="#6c361a" vector-effect="non-scaling-stroke" d="
  M 101.31 75.10
  C 99.49 83.33 86.13 79.65 80.30 79.47
  Q 78.93 79.43 80.24 79.86
  Q 87.09 82.08 93.74 81.73
  C 97.03 81.56 102.86 79.32 102.48 75.17
  A 0.59 0.59 0.0 0 0 101.31 75.10"
/>
<path stroke="#8a602a" vector-effect="non-scaling-stroke" d="
  M 106.85 81.44
  Q 107.48 81.68 108.20 81.77
  A 0.37 0.37 0.0 0 0 108.57 81.23
  Q 107.29 78.85 107.59 76.08
  A 0.70 0.70 0.0 0 0 106.25 75.75
  L 104.34 80.59
  Q 104.08 81.25 104.79 81.25
  L 105.82 81.25
  Q 106.35 81.25 106.85 81.44"
/>
<path stroke="#6c361a" vector-effect="non-scaling-stroke" d="
  M 32.82 81.19
  C 40.12 82.63 48.22 81.58 55.31 79.19
  Q 55.87 79.00 55.30 78.84
  Q 54.24 78.54 53.31 78.76
  Q 43.05 81.25 33.03 80.29
  Q 32.58 80.25 32.52 80.70
  Q 32.47 81.12 32.82 81.19"
/>
<path stroke="#241a19" vector-effect="non-scaling-stroke" d="
  M 57.21 95.51
  L 56.80 97.35"
/>
<path stroke="#501c1a" vector-effect="non-scaling-stroke" d="
  M 56.80 97.35
  C 50.19 97.57 34.56 99.32 34.91 89.05
  Q 34.92 88.61 34.50 88.51
  L 32.81 88.09"
/>
<path stroke="#75241d" vector-effect="non-scaling-stroke" d="
  M 32.81 88.09
  Q 31.40 86.86 28.03 87.64
  Q 26.12 88.08 26.49 90.28
  C 27.09 93.81 28.57 96.19 31.84 98.05
  C 46.97 106.62 67.51 110.75 84.51 104.86"
/>
<path stroke="#5e1c19" vector-effect="non-scaling-stroke" d="
  M 84.51 104.86
  C 90.95 103.07 102.03 97.59 102.03 90.45
  Q 102.04 88.77 101.13 88.46
  Q 100.21 88.16 98.43 88.67"
/>
<path stroke="#241a19" vector-effect="non-scaling-stroke" d="
  M 98.43 88.67
  Q 89.69 85.20 81.18 90.18
  Q 80.20 90.75 80.94 92.14"
/>
<path stroke="#888787" vector-effect="non-scaling-stroke" d="
  M 80.94 92.14
  L 72.45 96.02
  Q 72.13 96.17 72.47 96.28
  Q 80.39 98.83 84.76 98.50
  C 89.13 98.18 96.15 95.92 96.83 90.79"
/>
<path stroke="#241a19" vector-effect="non-scaling-stroke" d="
  M 96.83 90.79
  Q 97.71 90.84 98.19 90.50"
/>
<path stroke="#5e1c19" vector-effect="non-scaling-stroke" d="
  M 98.19 90.50
  Q 98.35 94.37 94.80 96.51
  C 85.43 102.16 79.09 99.77 69.29 97.79
  Q 68.81 97.69 68.50 98.08
  Q 65.98 101.21 62.31 101.86"
/>
<path stroke="#75241d" vector-effect="non-scaling-stroke" d="
  M 62.31 101.86
  Q 60.96 101.84 60.36 101.15"
/>
<path stroke="#501c1a" vector-effect="non-scaling-stroke" d="
  M 60.36 101.15
  C 61.78 100.29 65.45 99.72 66.31 97.78"
/>
<path stroke="#241a19" vector-effect="non-scaling-stroke" d="
  M 66.31 97.78
  Q 67.08 97.26 67.01 96.70
  Q 66.93 96.16 66.40 96.06
  C 59.05 94.60 53.03 90.35 46.58 86.65
  Q 43.82 85.07 41.91 86.51"
/>
<path stroke="#888787" vector-effect="non-scaling-stroke" d="
  M 41.91 86.51
  Q 40.09 87.05 39.16 85.32
  A 0.50 0.50 0.0 0 0 38.31 85.27
  Q 36.32 88.09 37.54 90.80
  C 40.30 96.91 52.13 95.48 57.21 95.51"
/>
<path stroke="#948b8a" vector-effect="non-scaling-stroke" d="
  M 41.91 86.51
  L 42.03 87.72
  Q 42.08 88.18 42.50 88.36
  L 57.42 94.47
  A 0.50 0.50 0.0 0 1 57.72 95.03
  Q 57.63 95.44 57.21 95.51"
/>
<path stroke="#5c201d" vector-effect="non-scaling-stroke" d="
  M 66.31 97.78
  Q 66.23 97.11 65.82 97.13
  Q 61.24 97.45 56.80 97.35"
/>
<path stroke="#ad2b20" vector-effect="non-scaling-stroke" d="
  M 32.81 88.09
  C 29.72 102.28 51.19 101.83 58.75 101.04
  Q 59.80 100.94 60.36 101.15"
/>
<path stroke="#bb2b1f" vector-effect="non-scaling-stroke" d="
  M 62.31 101.86
  Q 62.64 102.01 63.27 102.01
  Q 63.78 102.01 64.09 102.41
  C 67.24 106.49 77.14 104.31 83.91 103.38
  Q 84.45 103.30 84.66 103.80
  Q 84.85 104.24 84.51 104.86"
/>
<path stroke="#6a211c" vector-effect="non-scaling-stroke" d="
  M 98.43 88.67
  L 98.19 90.50"
/>
<path stroke="#948b8a" vector-effect="non-scaling-stroke" d="
  M 96.83 90.79
  L 96.44 89.54
  Q 96.28 89.03 95.75 89.13
  L 80.94 92.14"
/>
<path stroke="#313538" vector-effect="non-scaling-stroke" d="
  M 111.5381 87.5263
  A 1.04 0.37 80.7 0 0 111.7351 86.4402
  A 1.04 0.37 80.7 0 0 111.2019 85.4737
  A 1.04 0.37 80.7 0 0 111.0049 86.5598
  A 1.04 0.37 80.7 0 0 111.5381 87.5263"
/>
<path stroke="#313538" vector-effect="non-scaling-stroke" d="
  M 105.16 93.02
  Q 96.93 102.84 85.51 106.17
  C 84.54 106.45 83.39 107.24 82.44 107.70
  Q 82.25 107.78 82.35 107.96
  Q 82.42 108.09 82.54 108.16
  Q 82.69 108.24 82.96 108.17
  C 89.87 106.16 102.63 100.35 105.30 93.11
  A 0.09 0.08 76.7 0 0 105.16 93.02"
/>
<path stroke="#313538" vector-effect="non-scaling-stroke" d="
  M 25.57 95.82
  C 26.24 97.74 29.67 99.92 31.64 100.24
  A 0.11 0.11 0.0 0 0 31.72 100.05
  L 25.90 95.58
  A 0.21 0.21 0.0 0 0 25.57 95.82"
/>
</g>
<path fill="#f8f8f8" d="
  M 7.21 72.89
  L 6.73 72.61
  Q 6.37 72.39 6.43 71.97
  Q 7.79 63.35 11.95 55.79
  Q 13.37 53.20 14.00 50.54
  C 19.47 27.57 36.55 7.78 61.06 5.50
  C 97.23 2.14 122.48 33.55 117.57 68.22
  Q 116.96 72.51 116.28 76.79
  A 1.26 1.22 -59.6 0 0 116.50 77.69
  C 119.89 82.44 120.72 87.43 118.49 93.07
  C 113.45 105.81 101.36 114.09 88.16 116.83
  A 1.72 1.70 -72.7 0 0 87.31 117.28
  Q 76.40 128.01 60.92 125.58
  C 56.28 124.86 51.73 120.87 47.70 117.22
  Q 47.34 116.89 46.84 116.84
  Q 36.88 115.94 27.06 110.73
  Q 6.15 99.64 13.94 76.77
  A 0.59 0.58 2.8 0 0 13.25 76.01
  Q 11.18 76.52 8.94 76.85
  Q 7.50 77.07 7.34 76.28
  Q 7.18 75.56 7.67 74.19
  A 1.09 1.09 0.0 0 0 7.21 72.89
  Z
  M 21.03 71.76
  C 20.31 75.11 20.92 78.11 19.69 81.36
  C 12.02 101.73 33.29 110.55 49.13 111.46
  A 1.48 1.43 65.0 0 1 49.99 111.79
  C 53.69 114.74 58.61 119.37 63.29 120.23
  C 70.89 121.61 78.34 119.29 82.84 113.01
  A 1.27 1.24 -77.2 0 1 83.65 112.49
  C 96.04 110.20 109.21 102.81 113.51 90.49
  C 115.86 83.72 108.59 81.93 110.46 75.24
  C 118.01 48.25 106.15 18.16 76.72 11.71
  C 56.20 7.21 35.64 17.04 25.44 35.46
  Q 20.99 43.51 18.99 55.39
  A 1.32 1.30 77.0 0 1 18.48 56.22
  C 14.28 59.43 13.36 66.33 12.90 72.04
  Q 12.86 72.60 13.40 72.51
  L 20.63 71.34
  Q 21.14 71.25 21.03 71.76
  Z"
/>
<path fill="#171516" d="
  M 20.63 71.34
  L 13.40 72.51
  Q 12.86 72.60 12.90 72.04
  C 13.36 66.33 14.28 59.43 18.48 56.22
  A 1.32 1.30 77.0 0 0 18.99 55.39
  Q 20.99 43.51 25.44 35.46
  C 35.64 17.04 56.20 7.21 76.72 11.71
  C 106.15 18.16 118.01 48.25 110.46 75.24
  C 108.59 81.93 115.86 83.72 113.51 90.49
  C 109.21 102.81 96.04 110.20 83.65 112.49
  A 1.27 1.24 -77.2 0 0 82.84 113.01
  C 78.34 119.29 70.89 121.61 63.29 120.23
  C 58.61 119.37 53.69 114.74 49.99 111.79
  A 1.48 1.43 65.0 0 0 49.13 111.46
  C 33.29 110.55 12.02 101.73 19.69 81.36
  C 20.92 78.11 20.31 75.11 21.03 71.76
  Q 21.14 71.25 20.63 71.34
  Z
  M 26.10 39.23
  Q 23.14 45.44 21.95 52.49
  L 21.73 54.96
  Q 21.69 55.43 22.15 55.32
  L 29.07 53.65
  A 1.07 1.05 3.6 0 0 29.82 53.00
  Q 30.79 50.47 33.54 50.29
  A 1.08 1.08 0.0 0 0 34.39 49.77
  C 43.03 35.20 66.93 35.49 82.68 34.11
  C 90.89 33.39 96.82 42.80 97.03 49.78
  A 1.03 1.02 10.1 0 0 97.68 50.70
  L 102.67 52.67
  A 1.21 1.18 0.3 0 1 103.34 53.33
  C 105.40 58.48 104.14 67.38 102.97 72.67
  A 0.70 0.69 6.4 0 0 103.65 73.51
  C 108.92 73.55 109.17 70.83 109.78 66.22
  C 113.74 36.37 93.06 10.12 61.54 13.48
  Q 37.56 16.03 26.10 39.23
  Z
  M 67.9146 36.7095
  A 3.07 0.33 -10.9 0 0 64.8376 36.9660
  A 3.07 0.33 -10.9 0 0 61.8854 37.8705
  A 3.07 0.33 -10.9 0 0 64.9624 37.6140
  A 3.07 0.33 -10.9 0 0 67.9146 36.7095
  Z
  M 63.26 39.15
  Q 50.05 38.18 39.52 46.97
  A 0.52 0.51 20.2 0 0 39.94 47.87
  C 42.77 47.38 47.06 42.79 48.69 42.99
  Q 48.87 43.01 49.00 43.11
  Q 49.43 43.43 48.97 43.70
  Q 48.26 44.14 48.28 44.77
  L 44.79 47.20
  Q 43.76 47.91 44.99 47.68
  L 51.51 46.50
  C 64.71 44.87 77.66 45.32 90.44 49.23
  Q 91.44 48.62 92.65 50.57
  A 0.70 0.70 0.0 0 0 93.94 50.13
  Q 92.56 38.00 79.43 37.06
  L 63.26 39.15
  Z
  M 98.67 53.68
  Q 101.73 53.78 98.75 53.11
  C 84.53 49.91 71.36 47.66 56.71 49.91
  Q 52.11 50.61 56.74 51.12
  C 64.43 51.97 72.70 51.38 81.00 51.70
  C 87.21 51.94 92.42 53.48 98.67 53.68
  Z
  M 36.05 59.61
  L 36.03 68.89
  A 4.27 4.27 0.0 0 0 40.29 73.17
  L 44.55 73.18
  A 12.65 8.75 0.1 0 0 57.22 64.45
  L 57.22 64.13
  A 12.65 8.75 0.1 0 0 44.59 55.36
  L 40.33 55.35
  A 4.27 4.27 0.0 0 0 36.05 59.61
  Z
  M 19.40 69.13
  Q 20.76 69.93 23.26 69.12
  Q 25.67 69.70 27.49 68.56
  Q 28.07 69.06 28.60 69.01
  Q 29.14 68.97 29.03 68.44
  Q 27.84 62.65 28.40 56.75
  Q 28.44 56.26 27.96 56.34
  C 20.15 57.54 15.47 60.53 15.93 69.26
  Q 15.95 69.73 16.41 69.65
  L 19.40 69.13
  Z
  M 94.42 58.06
  Q 86.44 56.82 78.50 58.76
  C 74.06 59.85 75.04 65.04 77.20 67.79
  C 81.14 72.80 91.99 77.68 94.73 68.27
  Q 96.05 63.76 95.71 59.45
  A 1.54 1.54 0.0 0 0 94.42 58.06
  Z
  M 32.47 61.88
  C 31.62 67.33 32.26 74.72 39.36 74.60
  Q 40.22 74.58 39.42 74.27
  L 36.32 73.04
  A 0.95 0.50 1.4 0 1 36.16 72.95
  C 32.67 69.99 33.46 65.83 32.85 61.88
  Q 32.66 60.66 32.47 61.88
  Z
  M 72.69 61.69
  Q 72.87 64.73 74.93 67.91
  Q 74.99 68.00 75.00 68.00
  Q 75.14 68.00 75.29 68.00
  Q 75.58 68.01 75.42 67.76
  Q 73.52 64.83 73.76 61.32
  Q 73.79 60.90 73.37 60.95
  Q 72.65 61.06 72.69 61.69
  Z
  M 65.77 68.24
  L 65.12 70.17
  A 0.61 0.60 -12.5 0 0 66.11 70.80
  Q 67.09 69.85 67.21 68.55
  A 0.74 0.74 0.0 0 0 65.77 68.24
  Z
  M 70.36 74.96
  C 71.85 73.61 69.79 69.55 68.80 68.42
  A 0.39 0.38 -68.3 0 0 68.13 68.71
  L 68.63 74.68
  A 0.63 0.62 -86.9 0 0 69.13 75.24
  Q 69.87 75.40 70.36 74.96
  Z
  M 24.53 73.06
  L 23.56 73.37
  Q 23.00 73.55 23.06 74.13
  L 23.51 79.06
  Q 23.57 79.69 24.21 79.74
  Q 25.86 79.86 27.22 78.98
  Q 27.98 79.43 28.95 79.21
  Q 30.01 79.39 30.49 78.79
  A 0.67 0.66 45.4 0 0 30.49 77.96
  L 29.47 76.68
  L 27.98 71.94
  A 1.10 1.10 0.0 0 0 26.17 71.48
  L 24.53 73.06
  Z
  M 101.31 75.10
  C 99.49 83.33 86.13 79.65 80.30 79.47
  Q 78.93 79.43 80.24 79.86
  Q 87.09 82.08 93.74 81.73
  C 97.03 81.56 102.86 79.32 102.48 75.17
  A 0.59 0.59 0.0 0 0 101.31 75.10
  Z
  M 106.85 81.44
  Q 107.48 81.68 108.20 81.77
  A 0.37 0.37 0.0 0 0 108.57 81.23
  Q 107.29 78.85 107.59 76.08
  A 0.70 0.70 0.0 0 0 106.25 75.75
  L 104.34 80.59
  Q 104.08 81.25 104.79 81.25
  L 105.82 81.25
  Q 106.35 81.25 106.85 81.44
  Z
  M 32.82 81.19
  C 40.12 82.63 48.22 81.58 55.31 79.19
  Q 55.87 79.00 55.30 78.84
  Q 54.24 78.54 53.31 78.76
  Q 43.05 81.25 33.03 80.29
  Q 32.58 80.25 32.52 80.70
  Q 32.47 81.12 32.82 81.19
  Z
  M 57.21 95.51
  L 56.80 97.35
  C 50.19 97.57 34.56 99.32 34.91 89.05
  Q 34.92 88.61 34.50 88.51
  L 32.81 88.09
  Q 31.40 86.86 28.03 87.64
  Q 26.12 88.08 26.49 90.28
  C 27.09 93.81 28.57 96.19 31.84 98.05
  C 46.97 106.62 67.51 110.75 84.51 104.86
  C 90.95 103.07 102.03 97.59 102.03 90.45
  Q 102.04 88.77 101.13 88.46
  Q 100.21 88.16 98.43 88.67
  Q 89.69 85.20 81.18 90.18
  Q 80.20 90.75 80.94 92.14
  L 72.45 96.02
  Q 72.13 96.17 72.47 96.28
  Q 80.39 98.83 84.76 98.50
  C 89.13 98.18 96.15 95.92 96.83 90.79
  Q 97.71 90.84 98.19 90.50
  Q 98.35 94.37 94.80 96.51
  C 85.43 102.16 79.09 99.77 69.29 97.79
  Q 68.81 97.69 68.50 98.08
  Q 65.98 101.21 62.31 101.86
  Q 60.96 101.84 60.36 101.15
  C 61.78 100.29 65.45 99.72 66.31 97.78
  Q 67.08 97.26 67.01 96.70
  Q 66.93 96.16 66.40 96.06
  C 59.05 94.60 53.03 90.35 46.58 86.65
  Q 43.82 85.07 41.91 86.51
  Q 40.09 87.05 39.16 85.32
  A 0.50 0.50 0.0 0 0 38.31 85.27
  Q 36.32 88.09 37.54 90.80
  C 40.30 96.91 52.13 95.48 57.21 95.51
  Z
  M 111.5381 87.5263
  A 1.04 0.37 80.7 0 0 111.7351 86.4402
  A 1.04 0.37 80.7 0 0 111.2019 85.4737
  A 1.04 0.37 80.7 0 0 111.0049 86.5598
  A 1.04 0.37 80.7 0 0 111.5381 87.5263
  Z
  M 105.16 93.02
  Q 96.93 102.84 85.51 106.17
  C 84.54 106.45 83.39 107.24 82.44 107.70
  Q 82.25 107.78 82.35 107.96
  Q 82.42 108.09 82.54 108.16
  Q 82.69 108.24 82.96 108.17
  C 89.87 106.16 102.63 100.35 105.30 93.11
  A 0.09 0.08 76.7 0 0 105.16 93.02
  Z
  M 25.57 95.82
  C 26.24 97.74 29.67 99.92 31.64 100.24
  A 0.11 0.11 0.0 0 0 31.72 100.05
  L 25.90 95.58
  A 0.21 0.21 0.0 0 0 25.57 95.82
  Z"
/>
<path fill="#fee948" d="
  M 21.95 52.49
  L 29.03 38.36
  Q 29.24 37.94 28.79 37.83
  Q 28.59 37.78 28.38 37.86
  Q 28.14 37.97 27.96 38.38
  Q 27.24 40.00 26.10 39.23
  Q 37.56 16.03 61.54 13.48
  C 93.06 10.12 113.74 36.37 109.78 66.22
  C 109.17 70.83 108.92 73.55 103.65 73.51
  A 0.70 0.69 6.4 0 1 102.97 72.67
  C 104.14 67.38 105.40 58.48 103.34 53.33
  A 1.21 1.18 0.3 0 0 102.67 52.67
  L 97.68 50.70
  A 1.03 1.02 10.1 0 1 97.03 49.78
  C 96.82 42.80 90.89 33.39 82.68 34.11
  C 66.93 35.49 43.03 35.20 34.39 49.77
  A 1.08 1.08 0.0 0 1 33.54 50.29
  Q 30.79 50.47 29.82 53.00
  A 1.07 1.05 3.6 0 1 29.07 53.65
  L 22.15 55.32
  Q 21.69 55.43 21.73 54.96
  L 21.95 52.49
  Z"
/>
<ellipse fill="#4a5459" cx="0.00" cy="0.00" transform="translate(64.90,37.29) rotate(-10.9)" rx="3.07" ry="0.33"/>
<path fill="#fddd49" d="
  M 79.43 37.06
  Q 79.42 38.60 79.72 38.77
  Q 86.40 42.52 90.44 49.23
  C 77.66 45.32 64.71 44.87 51.51 46.50
  Q 50.83 46.61 50.78 46.44
  A 1.11 0.90 -15.8 0 1 51.61 45.26
  L 56.97 43.80
  Q 57.59 43.63 57.51 42.99
  L 57.22 40.74
  L 63.26 39.15
  L 79.43 37.06
  Z"
/>
<path fill="#ea8b2f" d="
  M 79.43 37.06
  Q 92.56 38.00 93.94 50.13
  A 0.70 0.70 0.0 0 1 92.65 50.57
  Q 91.44 48.62 90.44 49.23
  Q 86.40 42.52 79.72 38.77
  Q 79.42 38.60 79.43 37.06
  Z"
/>
<path fill="#fddd49" d="
  M 21.95 52.49
  Q 23.14 45.44 26.10 39.23
  Q 27.24 40.00 27.96 38.38
  Q 28.14 37.97 28.38 37.86
  Q 28.59 37.78 28.79 37.83
  Q 29.24 37.94 29.03 38.36
  L 21.95 52.49
  Z"
/>
<path fill="#88221d" d="
  M 63.26 39.15
  L 57.22 40.74
  Q 52.42 41.90 48.28 44.77
  Q 48.26 44.14 48.97 43.70
  Q 49.43 43.43 49.00 43.11
  Q 48.87 43.01 48.69 42.99
  C 47.06 42.79 42.77 47.38 39.94 47.87
  A 0.52 0.51 20.2 0 1 39.52 46.97
  Q 50.05 38.18 63.26 39.15
  Z"
/>
<path fill="#fcaa3d" d="
  M 57.22 40.74
  L 57.51 42.99
  Q 57.59 43.63 56.97 43.80
  L 51.61 45.26
  A 1.11 0.90 -15.8 0 0 50.78 46.44
  Q 50.83 46.61 51.51 46.50
  L 44.99 47.68
  Q 43.76 47.91 44.79 47.20
  L 48.28 44.77
  Q 52.42 41.90 57.22 40.74
  Z"
/>
<path fill="#fcaa3d" d="
  M 98.67 53.68
  C 92.42 53.48 87.21 51.94 81.00 51.70
  C 72.70 51.38 64.43 51.97 56.74 51.12
  Q 52.11 50.61 56.71 49.91
  C 71.36 47.66 84.53 49.91 98.75 53.11
  Q 101.73 53.78 98.67 53.68
  Z"
/>
<path fill="#4a5459" d="
  M 36.05 59.61
  A 4.27 4.27 0.0 0 1 40.33 55.35
  L 44.59 55.36
  A 12.65 8.75 0.1 0 1 57.22 64.13
  L 57.22 64.45
  A 12.65 8.75 0.1 0 1 44.55 73.18
  L 40.29 73.17
  A 4.27 4.27 0.0 0 1 36.03 68.89
  L 36.05 59.61
  Z"
/>
<path fill="#fee948" d="
  M 27.49 68.56
  L 21.99 68.89
  L 19.40 69.13
  L 16.41 69.65
  Q 15.95 69.73 15.93 69.26
  C 15.47 60.53 20.15 57.54 27.96 56.34
  Q 28.44 56.26 28.40 56.75
  Q 27.84 62.65 29.03 68.44
  Q 29.14 68.97 28.60 69.01
  Q 28.07 69.06 27.49 68.56
  Z"
/>
<path fill="#f8f8f8" d="
  M 94.42 58.06
  A 1.54 1.54 0.0 0 1 95.71 59.45
  Q 96.05 63.76 94.73 68.27
  C 91.99 77.68 81.14 72.80 77.20 67.79
  C 75.04 65.04 74.06 59.85 78.50 58.76
  Q 86.44 56.82 94.42 58.06
  Z"
/>
<path fill="#f8f8f8" d="
  M 32.85 61.88
  C 33.46 65.83 32.67 69.99 36.16 72.95
  A 0.95 0.50 1.4 0 0 36.32 73.04
  L 39.42 74.27
  Q 40.22 74.58 39.36 74.60
  C 32.26 74.72 31.62 67.33 32.47 61.88
  Q 32.66 60.66 32.85 61.88
  Z"
/>
<path fill="#4a5459" d="
  M 72.69 61.69
  Q 72.65 61.06 73.37 60.95
  Q 73.79 60.90 73.76 61.32
  Q 73.52 64.83 75.42 67.76
  Q 75.58 68.01 75.29 68.00
  Q 75.14 68.00 75.00 68.00
  Q 74.99 68.00 74.93 67.91
  Q 72.87 64.73 72.69 61.69
  Z"
/>
<path fill="#fcaa3d" d="
  M 65.12 70.17
  L 65.77 68.24
  A 0.74 0.74 0.0 0 1 67.21 68.55
  Q 67.09 69.85 66.11 70.80
  A 0.61 0.60 -12.5 0 1 65.12 70.17
  Z"
/>
<path fill="#ea8b2f" d="
  M 27.49 68.56
  Q 25.67 69.70 23.26 69.12
  L 21.99 68.89
  L 27.49 68.56
  Z"
/>
<path fill="#fcaa3d" d="
  M 70.36 74.96
  Q 69.87 75.40 69.13 75.24
  A 0.63 0.62 -86.9 0 1 68.63 74.68
  L 68.13 68.71
  A 0.39 0.38 -68.3 0 1 68.80 68.42
  C 69.79 69.55 71.85 73.61 70.36 74.96
  Z"
/>
<path fill="#c1571d" d="
  M 21.99 68.89
  L 23.26 69.12
  Q 20.76 69.93 19.40 69.13
  L 21.99 68.89
  Z"
/>
<path fill="#c1571d" d="
  M 29.47 76.68
  Q 28.67 77.85 28.95 79.21
  Q 27.98 79.43 27.22 78.98
  L 24.53 73.06
  L 26.17 71.48
  A 1.10 1.10 0.0 0 1 27.98 71.94
  L 29.47 76.68
  Z"
/>
<path fill="#ea8b2f" d="
  M 24.53 73.06
  L 27.22 78.98
  Q 25.86 79.86 24.21 79.74
  Q 23.57 79.69 23.51 79.06
  L 23.06 74.13
  Q 23.00 73.55 23.56 73.37
  L 24.53 73.06
  Z"
/>
<path fill="#c1571d" d="
  M 80.30 79.47
  C 86.13 79.65 99.49 83.33 101.31 75.10
  A 0.59 0.59 0.0 0 1 102.48 75.17
  C 102.86 79.32 97.03 81.56 93.74 81.73
  Q 87.09 82.08 80.24 79.86
  Q 78.93 79.43 80.30 79.47
  Z"
/>
<path fill="#fcaa3d" d="
  M 105.82 81.25
  L 104.79 81.25
  Q 104.08 81.25 104.34 80.59
  L 106.25 75.75
  A 0.70 0.70 0.0 0 1 107.59 76.08
  Q 107.29 78.85 108.57 81.23
  A 0.37 0.37 0.0 0 1 108.20 81.77
  Q 107.48 81.68 106.85 81.44
  Q 106.35 81.25 105.82 81.25
  Z"
/>
<path fill="#f8f8f8" d="
  M 29.47 76.68
  L 30.49 77.96
  A 0.67 0.66 45.4 0 1 30.49 78.79
  Q 30.01 79.39 28.95 79.21
  Q 28.67 77.85 29.47 76.68
  Z"
/>
<path fill="#c1571d" d="
  M 55.31 79.19
  C 48.22 81.58 40.12 82.63 32.82 81.19
  Q 32.47 81.12 32.52 80.70
  Q 32.58 80.25 33.03 80.29
  Q 43.05 81.25 53.31 78.76
  Q 54.24 78.54 55.30 78.84
  Q 55.87 79.00 55.31 79.19
  Z"
/>
<path fill="#f8f8f8" d="
  M 41.91 86.51
  L 42.03 87.72
  Q 42.08 88.18 42.50 88.36
  L 57.42 94.47
  A 0.50 0.50 0.0 0 1 57.72 95.03
  Q 57.63 95.44 57.21 95.51
  C 52.13 95.48 40.30 96.91 37.54 90.80
  Q 36.32 88.09 38.31 85.27
  A 0.50 0.50 0.0 0 1 39.16 85.32
  Q 40.09 87.05 41.91 86.51
  Z"
/>
<ellipse fill="#4a5459" cx="0.00" cy="0.00" transform="translate(111.37,86.50) rotate(80.7)" rx="1.04" ry="0.37"/>
<path fill="#301e1c" d="
  M 66.31 97.78
  Q 66.23 97.11 65.82 97.13
  Q 61.24 97.45 56.80 97.35
  L 57.21 95.51
  Q 57.63 95.44 57.72 95.03
  A 0.50 0.50 0.0 0 0 57.42 94.47
  L 42.50 88.36
  Q 42.08 88.18 42.03 87.72
  L 41.91 86.51
  Q 43.82 85.07 46.58 86.65
  C 53.03 90.35 59.05 94.60 66.40 96.06
  Q 66.93 96.16 67.01 96.70
  Q 67.08 97.26 66.31 97.78
  Z"
/>
<path fill="#d23323" d="
  M 32.81 88.09
  C 29.72 102.28 51.19 101.83 58.75 101.04
  Q 59.80 100.94 60.36 101.15
  Q 60.96 101.84 62.31 101.86
  Q 62.64 102.01 63.27 102.01
  Q 63.78 102.01 64.09 102.41
  C 67.24 106.49 77.14 104.31 83.91 103.38
  Q 84.45 103.30 84.66 103.80
  Q 84.85 104.24 84.51 104.86
  C 67.51 110.75 46.97 106.62 31.84 98.05
  C 28.57 96.19 27.09 93.81 26.49 90.28
  Q 26.12 88.08 28.03 87.64
  Q 31.40 86.86 32.81 88.09
  Z"
/>
<path fill="#301e1c" d="
  M 98.43 88.67
  L 98.19 90.50
  Q 97.71 90.84 96.83 90.79
  L 96.44 89.54
  Q 96.28 89.03 95.75 89.13
  L 80.94 92.14
  Q 80.20 90.75 81.18 90.18
  Q 89.69 85.20 98.43 88.67
  Z"
/>
<path fill="#88221d" d="
  M 32.81 88.09
  L 34.50 88.51
  Q 34.92 88.61 34.91 89.05
  C 34.56 99.32 50.19 97.57 56.80 97.35
  Q 61.24 97.45 65.82 97.13
  Q 66.23 97.11 66.31 97.78
  C 65.45 99.72 61.78 100.29 60.36 101.15
  Q 59.80 100.94 58.75 101.04
  C 51.19 101.83 29.72 102.28 32.81 88.09
  Z"
/>
<path fill="#a4231b" d="
  M 84.51 104.86
  Q 84.85 104.24 84.66 103.80
  Q 84.45 103.30 83.91 103.38
  C 77.14 104.31 67.24 106.49 64.09 102.41
  Q 63.78 102.01 63.27 102.01
  Q 62.64 102.01 62.31 101.86
  Q 65.98 101.21 68.50 98.08
  Q 68.81 97.69 69.29 97.79
  C 79.09 99.77 85.43 102.16 94.80 96.51
  Q 98.35 94.37 98.19 90.50
  L 98.43 88.67
  Q 100.21 88.16 101.13 88.46
  Q 102.04 88.77 102.03 90.45
  C 102.03 97.59 90.95 103.07 84.51 104.86
  Z"
/>
<path fill="#f8f8f8" d="
  M 96.83 90.79
  C 96.15 95.92 89.13 98.18 84.76 98.50
  Q 80.39 98.83 72.47 96.28
  Q 72.13 96.17 72.45 96.02
  L 80.94 92.14
  L 95.75 89.13
  Q 96.28 89.03 96.44 89.54
  L 96.83 90.79
  Z"
/>
<path fill="#4a5459" d="
  M 105.16 93.02
  A 0.09 0.08 76.7 0 1 105.30 93.11
  C 102.63 100.35 89.87 106.16 82.96 108.17
  Q 82.69 108.24 82.54 108.16
  Q 82.42 108.09 82.35 107.96
  Q 82.25 107.78 82.44 107.70
  C 83.39 107.24 84.54 106.45 85.51 106.17
  Q 96.93 102.84 105.16 93.02
  Z"
/>
<path fill="#4a5459" d="
  M 31.64 100.24
  C 29.67 99.92 26.24 97.74 25.57 95.82
  A 0.21 0.21 0.0 0 1 25.90 95.58
  L 31.72 100.05
  A 0.11 0.11 0.0 0 1 31.64 100.24
  Z"
/>
</svg>
